<mxfile host="app.diagrams.net" modified="2024-02-29T14:39:45.185Z" agent="Mozilla/5.0 (Windows NT 10.0; Win64; x64) AppleWebKit/537.36 (KHTML, like Gecko) Chrome/122.0.0.0 Safari/537.36" etag="u2_jZjcLeejvUE_bnlrc" version="23.1.8" type="github">
  <diagram name="PÃ¡gina-1" id="2D1FAWJdR__9L3fYYV72">
    <mxGraphModel dx="874" dy="434" grid="1" gridSize="10" guides="1" tooltips="1" connect="1" arrows="1" fold="1" page="1" pageScale="1" pageWidth="827" pageHeight="1169" background="none" math="0" shadow="0">
      <root>
        <mxCell id="0" />
        <mxCell id="1" parent="0" />
        <mxCell id="EcNW-BV-gxH8nLmrGmOD-1" value="Menu" style="swimlane;fontStyle=1;align=center;verticalAlign=top;childLayout=stackLayout;horizontal=1;startSize=26;horizontalStack=0;resizeParent=1;resizeParentMax=0;resizeLast=0;collapsible=1;marginBottom=0;whiteSpace=wrap;html=1;" parent="1" vertex="1">
          <mxGeometry x="20" y="30" width="240" height="160" as="geometry" />
        </mxCell>
        <mxCell id="EcNW-BV-gxH8nLmrGmOD-2" value="- Integer: numero&lt;br&gt;- String : nombre&lt;div&gt;new Scanner ver&lt;/div&gt;" style="text;strokeColor=none;fillColor=none;align=left;verticalAlign=top;spacingLeft=4;spacingRight=4;overflow=hidden;rotatable=0;points=[[0,0.5],[1,0.5]];portConstraint=eastwest;whiteSpace=wrap;html=1;" parent="EcNW-BV-gxH8nLmrGmOD-1" vertex="1">
          <mxGeometry y="26" width="240" height="64" as="geometry" />
        </mxCell>
        <mxCell id="EcNW-BV-gxH8nLmrGmOD-3" value="" style="line;strokeWidth=1;fillColor=none;align=left;verticalAlign=middle;spacingTop=-1;spacingLeft=3;spacingRight=3;rotatable=0;labelPosition=right;points=[];portConstraint=eastwest;strokeColor=inherit;" parent="EcNW-BV-gxH8nLmrGmOD-1" vertex="1">
          <mxGeometry y="90" width="240" height="8" as="geometry" />
        </mxCell>
        <mxCell id="EcNW-BV-gxH8nLmrGmOD-4" value="+ public void Menu1(){}&lt;br&gt;+ public void Menu2(){}&lt;br&gt;+public void Ejecutar (){}" style="text;strokeColor=none;fillColor=none;align=left;verticalAlign=top;spacingLeft=4;spacingRight=4;overflow=hidden;rotatable=0;points=[[0,0.5],[1,0.5]];portConstraint=eastwest;whiteSpace=wrap;html=1;" parent="EcNW-BV-gxH8nLmrGmOD-1" vertex="1">
          <mxGeometry y="98" width="240" height="62" as="geometry" />
        </mxCell>
        <mxCell id="EcNW-BV-gxH8nLmrGmOD-5" value="Validacion" style="swimlane;fontStyle=1;align=center;verticalAlign=top;childLayout=stackLayout;horizontal=1;startSize=26;horizontalStack=0;resizeParent=1;resizeParentMax=0;resizeLast=0;collapsible=1;marginBottom=0;whiteSpace=wrap;html=1;" parent="1" vertex="1">
          <mxGeometry x="50" y="340" width="210" height="80" as="geometry" />
        </mxCell>
        <mxCell id="EcNW-BV-gxH8nLmrGmOD-7" value="" style="line;strokeWidth=1;fillColor=none;align=left;verticalAlign=middle;spacingTop=-1;spacingLeft=3;spacingRight=3;rotatable=0;labelPosition=right;points=[];portConstraint=eastwest;strokeColor=inherit;" parent="EcNW-BV-gxH8nLmrGmOD-5" vertex="1">
          <mxGeometry y="26" width="210" height="8" as="geometry" />
        </mxCell>
        <mxCell id="EcNW-BV-gxH8nLmrGmOD-8" value="+ public void Validar(){}&lt;br&gt;new Menu&amp;nbsp; acceder" style="text;strokeColor=none;fillColor=none;align=left;verticalAlign=top;spacingLeft=4;spacingRight=4;overflow=hidden;rotatable=0;points=[[0,0.5],[1,0.5]];portConstraint=eastwest;whiteSpace=wrap;html=1;" parent="EcNW-BV-gxH8nLmrGmOD-5" vertex="1">
          <mxGeometry y="34" width="210" height="46" as="geometry" />
        </mxCell>
        <mxCell id="aOgFz-PsCYkuYu_YMSrs-1" value="Multiplicacion" style="swimlane;fontStyle=1;align=center;verticalAlign=top;childLayout=stackLayout;horizontal=1;startSize=26;horizontalStack=0;resizeParent=1;resizeParentMax=0;resizeLast=0;collapsible=1;marginBottom=0;whiteSpace=wrap;html=1;" vertex="1" parent="1">
          <mxGeometry x="430" y="340" width="230" height="80" as="geometry" />
        </mxCell>
        <mxCell id="aOgFz-PsCYkuYu_YMSrs-3" value="" style="line;strokeWidth=1;fillColor=none;align=left;verticalAlign=middle;spacingTop=-1;spacingLeft=3;spacingRight=3;rotatable=0;labelPosition=right;points=[];portConstraint=eastwest;strokeColor=inherit;" vertex="1" parent="aOgFz-PsCYkuYu_YMSrs-1">
          <mxGeometry y="26" width="230" height="8" as="geometry" />
        </mxCell>
        <mxCell id="aOgFz-PsCYkuYu_YMSrs-4" value="+public static void main (String[ ] args){}&lt;br&gt;new Validacion vali" style="text;strokeColor=none;fillColor=none;align=left;verticalAlign=top;spacingLeft=4;spacingRight=4;overflow=hidden;rotatable=0;points=[[0,0.5],[1,0.5]];portConstraint=eastwest;whiteSpace=wrap;html=1;" vertex="1" parent="aOgFz-PsCYkuYu_YMSrs-1">
          <mxGeometry y="34" width="230" height="46" as="geometry" />
        </mxCell>
        <mxCell id="aOgFz-PsCYkuYu_YMSrs-5" value="Use" style="endArrow=open;endSize=12;dashed=1;html=1;rounded=0;entryX=0.579;entryY=1.016;entryDx=0;entryDy=0;entryPerimeter=0;exitX=0.5;exitY=0;exitDx=0;exitDy=0;" edge="1" parent="1" source="EcNW-BV-gxH8nLmrGmOD-5" target="EcNW-BV-gxH8nLmrGmOD-4">
          <mxGeometry width="160" relative="1" as="geometry">
            <mxPoint x="150" y="330" as="sourcePoint" />
            <mxPoint x="235" y="230" as="targetPoint" />
          </mxGeometry>
        </mxCell>
        <mxCell id="aOgFz-PsCYkuYu_YMSrs-6" value="Use" style="endArrow=open;endSize=12;dashed=1;html=1;rounded=0;entryX=1;entryY=0.5;entryDx=0;entryDy=0;exitX=0;exitY=0.5;exitDx=0;exitDy=0;" edge="1" parent="1" source="aOgFz-PsCYkuYu_YMSrs-4" target="EcNW-BV-gxH8nLmrGmOD-8">
          <mxGeometry width="160" relative="1" as="geometry">
            <mxPoint x="290" y="350" as="sourcePoint" />
            <mxPoint x="450" y="350" as="targetPoint" />
          </mxGeometry>
        </mxCell>
      </root>
    </mxGraphModel>
  </diagram>
</mxfile>
